<svg width="79" height="96" viewBox="0 0 79 96" fill="none" xmlns="http://www.w3.org/2000/svg">
<path fill-rule="evenodd" clip-rule="evenodd" d="M39.1842 0C60.6612 0 78.0696 21.0752 78.0696 38.8175C78.0696 56.5632 71.0809 64.8714 59.8831 71.6878C59.722 71.5167 59.5266 71.325 59.3039 71.1163C69.5625 64.649 75.924 56.6111 75.924 39.9912C75.924 22.8819 59.1359 2.55954 38.4302 2.55954C17.721 2.55954 0.936401 19.3198 0.936401 39.9912C0.936401 51.6015 6.22851 61.9765 14.5369 68.8408C5.84805 61.7233 0.302307 50.9171 0.302307 38.8175C0.302307 17.3796 17.7107 0 39.1842 0Z" fill="white"/>
<path d="M39.9656 37.8046L29.4842 40.9561L27.7602 40.0459C25.7105 38.9714 24.504 38.8756 23.6609 39.8166C23.0405 40.501 23.0405 40.501 23.9522 41.2128C24.4389 41.6029 24.8296 42.0922 24.8296 42.2872C24.8296 42.4823 23.9865 43.1632 22.9753 43.8134C16.3705 47.8101 13.4708 54.9583 14.4168 65.0323C15.068 72.0847 16.4973 76.5023 20.5007 83.7156C22.9753 88.1674 22.7457 89.7209 23.0062 93.1667C23.0953 94.1111 23.3387 95.0864 23.7088 95.5107C23.8699 95.6989 24.2915 95.6749 24.3429 95.6749C25.2547 95.6065 26.2966 88.7183 25.9367 85.3409C25.8065 84.0064 25.8408 83.3255 26.067 83.3255C26.2624 83.3255 27.0438 84.5608 27.791 86.0869C28.9564 88.6909 29.0387 89.1597 29.4431 92.4515L29.4191 95.1514C29.3266 95.9418 30.3343 96.1437 30.6667 95.757C31.5133 94.5252 31.9418 92.2702 32.5107 90.8638C35.0197 84.7216 36.5141 82.5145 39.8011 80.0439C42.1147 78.2885 45.2372 76.9232 45.7582 77.4433C45.9535 77.6384 45.7582 77.8984 45.3023 78.1927C41.9502 80.239 40.9733 80.9541 39.7051 82.3194C37.7206 84.4307 36.7746 86.3812 36.7438 88.2974C36.7438 90.1486 37.4258 91.2231 39.5749 92.585C40.4215 93.1051 41.1036 93.6595 41.1036 93.8203C41.1036 93.9503 39.64 93.9503 37.8508 93.8545C35.15 93.6595 34.4987 93.7245 33.7824 94.1796C33.3265 94.4704 32.9666 94.9906 32.9666 95.3498C32.9666 96 33.2271 96 45.3366 96C59.0399 96 59.2352 95.9658 60.7296 93.9845C61.9361 92.4242 62.5531 90.5079 62.9438 87.0313C63.6259 80.8241 62.1966 76.2765 58.2584 72.0847C57.1821 70.9144 54.0597 68.283 51.3553 66.2675C46.0187 62.2708 43.7085 60.1595 43.7085 59.3143C43.7085 58.4041 44.6511 57.3981 45.7273 57.1689C48.3254 56.5769 55.369 53.7367 55.9791 50.4826C56.2876 49.8256 56.2396 49.2746 56.2396 45.8288C56.2396 42.9032 56.075 41.4762 55.6535 40.2067C53.1993 33.0653 45.6588 36.4393 39.9656 37.8046ZM53.4393 37.7054C54.1556 38.2905 54.4504 38.8414 54.4504 39.4916C54.4504 40.5968 53.6346 40.7919 53.309 39.7516C53.1137 39.1665 52.8874 39.0707 51.7803 39.2315C50.6733 39.3958 50.447 39.2965 50.1523 38.6464C49.6313 37.4761 50.022 36.8602 51.3245 36.8602C52.0408 36.8602 52.788 37.151 53.4393 37.7054ZM38.5809 43.4986C37.7206 43.6423 36.8397 43.6457 35.928 43.2282C35.3762 42.5781 36.2536 40.9527 37.4601 40.2718C38.437 39.7208 40.0308 39.8817 40.7471 40.5626C41.3332 41.1477 40.7265 42.9271 39.2253 43.283L38.5809 43.4986Z" fill="white"/>
</svg>
